<svg width="140" height="159" viewBox="0 0 140 159" xmlns="http://www.w3.org/2000/svg">
    <g fill="none" fill-rule="evenodd">
        <path d="M51.048 2h37.904c16.028 0 22.49 1.866 28.807 5.245 6.465 3.458 11.538 8.531 14.996 14.996C136.134 28.559 138 35.02 138 51.048v34.981c0 11.576-.658 16.187-2.027 20.66l-.142.455-.146.455c-1.61 4.927-4.091 9.19-7.58 13.024l-.323.352c-.324.35-.651.693-.987 1.033l-.34.34c-3.027 2.985-6.92 5.807-15.96 10.944L70 156.3l-40.495-23.008c-9.04-5.137-12.933-7.96-15.96-10.945l-.34-.339c-.336-.34-.663-.683-.987-1.033l-.323-.352c-3.489-3.833-5.97-8.097-7.58-13.024-1.54-4.716-2.292-9.073-2.314-20.995L2 51.048C2 35.02 3.866 28.558 7.245 22.24c3.458-6.465 8.531-11.538 14.996-14.996C28.559 3.866 35.02 2 51.048 2z" stroke="#FFF" stroke-width="4"/>
        <path d="M28.345 74.718c2.105 0 3.707-.387 4.806-1.162 1.099-.775 1.648-1.882 1.648-3.323 0-1.017-.26-1.874-.783-2.57-.523-.697-1.245-1.194-2.167-1.492a3.985 3.985 0 0 0 1.579-1.479c.376-.626.565-1.338.565-2.137 0-1.315-.527-2.356-1.58-3.123-1.052-.767-2.562-1.15-4.53-1.15H20v16.436h8.345zm-.922-9.697H23.71v-3.875h3.712c.922 0 1.621.16 2.098.482.476.32.714.802.714 1.444 0 .642-.238 1.127-.714 1.456-.477.328-1.176.493-2.098.493zm.645 6.833h-4.357V67.79h4.357c1.983 0 2.974.681 2.974 2.043 0 .689-.25 1.198-.75 1.526-.499.33-1.24.494-2.224.494zm22.061 2.864v-3.052h-8.783v-3.804h7.492v-2.959h-7.492v-3.569h8.483v-3.052H37.635v16.436h12.494zm8.276.282c1.475 0 2.728-.227 3.757-.68 1.03-.455 1.802-1.07 2.317-1.844a4.547 4.547 0 0 0 .772-2.571c0-1.096-.28-1.965-.841-2.607a4.999 4.999 0 0 0-2.017-1.408c-.784-.298-1.79-.595-3.02-.893-1.183-.266-2.063-.536-2.64-.81-.576-.274-.864-.693-.864-1.256 0-.564.25-1.018.75-1.362.499-.344 1.271-.517 2.316-.517 1.49 0 2.981.431 4.472 1.292l1.153-2.888c-.738-.47-1.599-.83-2.582-1.08a12.19 12.19 0 0 0-3.02-.376c-1.475 0-2.724.227-3.746.68-1.022.455-1.786 1.07-2.294 1.844a4.636 4.636 0 0 0-.76 2.595c0 1.096.28 1.972.841 2.63a4.907 4.907 0 0 0 2.017 1.432c.784.297 1.79.595 3.02.892.8.188 1.433.36 1.902.517.468.156.853.364 1.152.622.3.258.45.583.45.974 0 .533-.254.96-.76 1.28-.508.321-1.292.482-2.352.482a9.11 9.11 0 0 1-2.859-.47c-.952-.313-1.775-.728-2.466-1.245l-1.268 2.865c.722.564 1.679 1.021 2.87 1.374 1.191.352 2.424.528 3.7.528zm16.252-.282V61.381h5.163v-3.1H65.758v3.1h5.164v13.337h3.735zM96.164 75c1.675 0 3.181-.368 4.518-1.104a8.21 8.21 0 0 0 3.158-3.04c.769-1.292 1.153-2.744 1.153-4.356 0-1.612-.384-3.064-1.153-4.356a8.21 8.21 0 0 0-3.158-3.04C99.345 58.368 97.84 58 96.164 58c-1.675 0-3.185.368-4.53 1.104a8.106 8.106 0 0 0-3.158 3.04c-.76 1.292-1.14 2.744-1.14 4.356 0 1.612.38 3.064 1.14 4.356a8.106 8.106 0 0 0 3.158 3.04C92.98 74.632 94.49 75 96.164 75zm0-3.24c-.953 0-1.813-.223-2.582-.67a4.76 4.76 0 0 1-1.81-1.866c-.437-.799-.656-1.707-.656-2.724 0-1.017.219-1.925.657-2.724a4.76 4.76 0 0 1 1.81-1.866c.768-.447 1.628-.67 2.581-.67.953 0 1.814.223 2.582.67a4.76 4.76 0 0 1 1.81 1.866c.438.799.657 1.707.657 2.724 0 1.017-.22 1.925-.657 2.724a4.76 4.76 0 0 1-1.81 1.866c-.768.447-1.629.67-2.582.67zm15.376 2.958v-5.987h7.469v-3.053h-7.47v-4.344H120v-3.052h-12.195v16.436h3.735zM52 113v-4H40l7-7c1.403-1.109 2.532-2.5 3-4 .71-.942 1.006-2.248 1-4 .006-1.91-.83-3.704-2-5-2.169-1.34-4.403-2-7-2-2.314 0-4.223.372-6 1-1.637.862-2.993 1.905-4 3l3 3c1.751-1.97 3.765-2.862 6-3 1.964.138 3.155.455 4 1 .775.725 1.18 1.64 1 3 .18.642-.022 1.454 0 2-.832 1.09-1.612 2.048-3 3l-10 10v3h19zm12 0c2.492 0 4.293-.512 6-2 1.476-.558 2.726-2.05 4-4 .545-1.975 1-4.304 1-7 0-2.696-.455-5.025-1-7-1.274-1.95-2.524-3.442-4-4-1.707-1.488-3.508-2-6-2-1.528 0-3.323.512-5 2-1.482.558-2.726 2.05-4 4-.545 1.975-1 4.304-1 7 0 2.696.455 5.025 1 7 1.274 1.95 2.518 3.442 4 4 1.677 1.488 3.472 2 5 2zm1-4c-1.851 0-3.307-.753-4-2-1.461-1.765-2-4.012-2-7 0-2.988.539-5.235 2-7 .693-1.247 2.149-2 4-2 1.839 0 3.307.753 4 2 1.461 1.765 2 4.012 2 7 0 2.988-.539 5.235-2 7-.693 1.247-2.161 2-4 2zm32 4v-4H85l7-7c1.403-1.109 2.532-2.5 3-4 .71-.942 1.006-2.248 1-4 .006-1.91-.83-3.704-2-5-2.169-1.34-4.403-2-7-2-2.314 0-4.223.372-6 1-1.637.862-2.993 1.905-4 3l3 3c1.751-1.97 3.765-2.862 6-3 1.964.138 3.155.455 4 1 .775.725 1.18 1.64 1 3 .18.642-.022 1.454 0 2-.832 1.09-1.612 2.048-3 3l-10 10v3h19zm11-1V87H98v4h5v21h5zM36.788 42.75V41.5c-.682 1-1.796 1.5-3.152 1.5C31.344 43 30 41.603 30 39.75c0-2.12 1.402-3.318 3.879-3.25h2.909v-.25c-.01-1.176-.74-1.834-2.182-1.75-.9-.084-1.975.235-3.151.75l-.728-2c1.443-.81 2.768-1.25 4.606-1.25 2.732 0 4.326 1.437 4.364 3.75v7h-2.91zm-2.182-2c1.241 0 2.247-.678 2.424-1.5v-1h-2.424c-1.125 0-1.697.349-1.697 1.25 0 .727.631 1.25 1.697 1.25zM45.516 32h-3.152v11h3.151v-5.25C45.4 35.923 46.74 34.73 48.91 35v-3c-1.577.02-2.78.748-3.394 2v-2zm9.454 0c2.01 0 3.598.821 4.606 2.25l-2.182 1.5c-.473-.704-1.267-1.145-2.182-1.25-1.565.125-2.592 1.287-2.667 3 .075 1.753 1.102 2.935 2.667 3 .954-.065 1.787-.485 2.424-1.25l1.94 1.25c-.872 1.618-2.5 2.5-4.606 2.5-3.183 0-5.334-2.204-5.334-5.5 0-3.276 2.151-5.5 5.334-5.5zm25.454 0c3.625 0 5.317 2.505 5.091 6.5H78c.417 1.294 1.416 2.096 2.667 2 1.056.096 1.979-.305 2.666-1L85.03 41c-1.154 1.299-2.672 2-4.606 2-3.238 0-5.333-2.204-5.333-5.5s2.172-5.5 5.333-5.5zm24 0c3.334 0 5.576 2.184 5.576 5.5 0 3.276-2.242 5.5-5.576 5.5-3.334 0-5.576-2.224-5.576-5.5 0-3.316 2.242-5.5 5.576-5.5zm-36.121 2.75c1.386-.011 2.167.824 2.182 2.25v5.75H69.03V37c-.109-1.053-.524-1.768-1.286-2.169l-.168-.081c.297.033.55-.008.727 0zM65.879 28v4.5c.707-.395 1.402-.554 2.182-.5a1.65 1.65 0 0 1 .727 0c.277-.04.529-.06.727 0 2.395-.064 3.879 1.526 3.879 4v6.75h-1.455V36c0-2.19-1.182-3.692-3.151-4-1.211.187-2.189.828-2.91 2v-1.5c-.536.252-1.052.758-1.454 1.5v-6h1.455zm1.145 6.749c.226.003.419.025.552.001-.974.44-1.58 1.446-1.697 2.75v5.25h-1.455V37.5c.015-1.588.933-2.741 2.424-2.75zM62.97 28v14.75h-1.455V28h1.455zm27.636 0v14.75h-2.909V28h2.91zm6.06 0v14.75h-2.908V28h2.909zm7.758 6.5c-1.64 0-2.666 1.216-2.666 3s1.025 3 2.666 3c1.38 0 2.424-1.216 2.424-3s-1.044-3-2.424-3zm-24-.25c-1.276 0-2.187.885-2.424 2.25h4.848c-.04-1.365-.95-2.25-2.424-2.25z" fill="#FFF"/>
    </g>
</svg>
